<?xml version="1.0" standalone="no"?>
<!DOCTYPE svg PUBLIC "-//W3C//DTD SVG 20010904//EN"
 "http://www.w3.org/TR/2001/REC-SVG-20010904/DTD/svg10.dtd">
<svg version="1.0" xmlns="http://www.w3.org/2000/svg"
 width="192.000000pt" height="192.000000pt" viewBox="0 0 192.000000 192.000000"
 preserveAspectRatio="xMidYMid meet">
<metadata>
Created by potrace 1.11, written by Peter Selinger 2001-2013
</metadata>
<g transform="translate(0.000000,192.000000) scale(0.100000,-0.100000)"
fill="#000000" stroke="none">
<path d="M338 1051 c-14 -22 -24 -42 -21 -45 4 -3 26 -6 50 -6 l43 0 -61 -82
c-38 -51 -56 -85 -50 -91 5 -5 75 -8 168 -5 128 3 165 7 193 22 39 20 80 55
80 68 0 4 -45 8 -100 8 -55 0 -100 2 -100 5 0 3 7 17 16 30 9 13 13 29 9 35
-4 6 7 10 29 10 38 0 45 -10 21 -30 -8 -7 -15 -19 -15 -26 0 -11 19 -14 79
-14 l78 0 28 39 c30 44 28 68 -8 101 -19 19 -35 20 -216 20 l-196 -1 -27 -38z"/>
<path d="M863 1023 c-26 -37 -52 -73 -56 -80 -6 -11 32 -13 202 -13 l209 0 49
68 c27 37 53 73 57 80 5 9 -13 12 -83 12 l-90 0 -28 -40 c-21 -30 -35 -40 -57
-40 -28 0 -28 1 -12 23 43 60 45 57 -53 57 l-89 0 -49 -67z"/>
<path d="M1321 1020 c-28 -39 -51 -75 -51 -80 0 -6 37 -10 89 -10 l88 0 50 68
c27 37 53 73 57 80 6 9 -14 12 -87 12 l-95 0 -51 -70z"/>
<path d="M52 873 l3 -48 101 -3 c81 -2 104 0 114 13 7 8 10 15 7 15 -4 0 7 14
23 30 17 17 30 33 30 35 0 3 -63 5 -140 5 l-141 0 3 -47z"/>
<path d="M758 881 c-16 -22 -28 -44 -28 -50 0 -12 148 -15 166 -3 13 9 64 77
64 85 0 4 -39 7 -87 7 l-88 0 -27 -39z"/>
<path d="M997 879 c-15 -22 -25 -44 -22 -50 9 -14 148 -11 167 4 16 13 58 71
58 81 0 3 -39 6 -87 6 l-88 -1 -28 -40z"/>
<path d="M1232 899 c-19 -31 -6 -57 36 -69 43 -12 281 -13 300 -2 15 10 62 73
62 84 0 4 -87 8 -193 8 -183 0 -193 -1 -205 -21z"/>
<path d="M1650 906 c0 -7 -7 -16 -15 -20 -8 -3 -15 -12 -15 -21 0 -8 -4 -15
-10 -15 -5 0 -10 -7 -10 -15 0 -13 21 -15 129 -15 72 0 132 3 134 8 3 4 7 25
9 47 l3 40 -113 3 c-92 2 -112 0 -112 -12z"/>
</g>
</svg>
